<?xml version="1.0" encoding="utf-8"?>
<svg width="9550px" height="9550px" viewBox="0 0 9550 9550" version="1.1" xmlns:xlink="http://www.w3.org/1999/xlink" xmlns="http://www.w3.org/2000/svg">
  <defs>
    <path d="M0 4525C0 2025.91 2025.91 0 4525 0C7024.09 0 9050 2025.91 9050 4525C9050 7024.09 7024.09 9050 4525 9050C2025.91 9050 0 7024.09 0 4525Z" transform="translate(250 250)" id="path_1" />
    <path d="M0 0L8119.8 0L8119.8 3822.61L0 3822.61L0 0Z" transform="matrix(1 -1.1111281E-09 1.1111281E-09 1 0 7.6293945E-06)" id="path_2" />
    <clipPath id="mask_1">
      <use xlink:href="#path_2" />
    </clipPath>
  </defs>
  <g id="Ellipse">
    <use xlink:href="#path_1" fill="none" stroke="#FFFFFF" stroke-width="500" />
    <use stroke="none" fill="#D3D3D3" fill-opacity="0" xlink:href="#path_1" fill-rule="evenodd" />
  </g>
  <g id="infinity_symbol" transform="translate(715.4121 2864)">
    <path d="M0 0L8119.8 0L8119.8 3822.61L0 3822.61L0 0Z" transform="matrix(1 -1.1111281E-09 1.1111281E-09 1 0 7.6293945E-06)" id="Background" fill="none" fill-rule="evenodd" stroke="none" />
    <g clip-path="url(#mask_1)">
      <g id="Group" transform="matrix(1 -1.1111281E-09 1.1111281E-09 1 216.9043 175.94861)">
        <g id="Group">
          <path d="M0.486823 1781.06C-30.3438 462.137 1408.96 -464.226 2672.24 259.695C3088.41 498.185 3441.7 851.4 3821.57 1237.17C3838.84 1254.71 3846.82 1252.9 3862.98 1236.61C4457.15 637.652 5317.46 -275.647 6522.5 79.689C7029.64 229.228 7382.03 558.251 7562.57 1054.04C8166.81 2713.35 6433.55 4087.14 4947.22 3176.46C4572.35 2946.77 4248.6 2629.84 3865.93 2240.11C3845.5 2219.3 3836.28 2222.25 3817.61 2241.08C3382.85 2679.5 2914.86 3156.05 2336.82 3355.55C1160.54 3761.52 32.9184 3060.58 0.486823 1781.06L0.486823 1781.06ZM736.544 1755.49C774.046 2517.36 1360.09 2872.53 1984.51 2737.48C2524.14 2620.76 2976.83 2146.16 3362.4 1749.81C3375.39 1736.45 3368.1 1731.03 3359.18 1722.7C3024.29 1410.11 2697.25 1028.28 2285.09 831.782C1486.26 450.951 733.856 1009.45 736.544 1755.49L736.544 1755.49ZM6947.86 1723.29C6924.12 986.999 6343.24 585.76 5673.87 742.766C5147.21 866.299 4697.16 1338.66 4323.26 1722.83C4310.29 1736.16 4315.27 1742.38 4325.9 1752.3C4793.39 2188.58 5345.07 2877.41 6090.43 2751.87C6586.92 2668.24 6948.97 2235.8 6947.86 1723.29L6947.86 1723.29Z" id="Shape" fill="#FFFFFF" fill-rule="evenodd" stroke="none" />
        </g>
      </g>
    </g>
  </g>
</svg>